<svg width="504" height="500" viewBox="0 0 504 500" fill="none" xmlns="http://www.w3.org/2000/svg">
<path d="M0 150C0 67.1573 67.1573 0 150 0H354C436.843 0 504 67.1573 504 150V350C504 432.843 436.843 500 354 500H150C67.1573 500 0 432.843 0 350V150Z" fill="white"/>
<path d="M124.95 310V307H138.6V103H124.95V100H164.4L188.25 251.05H186.6L214.65 100H252V103H237.9V307H252V310H202.95V307H215.4V105.1H216.75L179.4 310H175.05L140.55 102.4L141.6 102.55V307H156.75V310H124.95ZM266.726 310V307H280.376V103H266.726V100H312.926C322.426 100 331.076 103.8 338.876 111.4C346.776 118.9 353.076 130.3 357.776 145.6C362.476 160.9 364.826 180.15 364.826 203.35C364.826 226.75 362.476 246.4 357.776 262.3C353.076 278.1 346.776 290 338.876 298C330.976 306 322.326 310 312.926 310H266.726ZM303.026 307H309.776C315.376 307 320.526 303.3 325.226 295.9C330.026 288.5 333.826 277.15 336.626 261.85C339.526 246.55 340.976 227.05 340.976 203.35C340.976 182.35 339.676 164.4 337.076 149.5C334.576 134.5 331.226 123 327.026 115C322.826 107 318.326 103 313.526 103H303.026V307Z" fill="#AC0000"/>
<path d="M171.875 439.2C168.825 439.2 166.475 438.35 164.825 436.65C163.225 434.95 162.125 432.725 161.525 429.975C160.975 427.175 160.7 424.15 160.7 420.9C160.7 417.5 160.825 414.075 161.075 410.625C161.375 407.125 161.525 403.9 161.525 400.95C161.525 397.15 161.125 394.05 160.325 391.65C159.575 389.25 158.225 387.5 156.275 386.4C154.375 385.25 151.675 384.675 148.175 384.675H143.825V436.5H150.65V438H125.675V436.5H132.65V334.5H125.675V333H152.825C156.875 333 160.475 333.85 163.625 335.55C166.775 337.2 169.225 339.825 170.975 343.425C172.775 346.975 173.675 351.625 173.675 357.375C173.675 361.925 173.075 365.825 171.875 369.075C170.725 372.325 169.175 375 167.225 377.1C165.325 379.15 163.2 380.725 160.85 381.825C158.5 382.925 156.2 383.6 153.95 383.85C159.3 384 163.275 385.075 165.875 387.075C168.525 389.075 170.275 391.9 171.125 395.55C172.025 399.15 172.475 403.55 172.475 408.75C172.475 411 172.425 413.275 172.325 415.575C172.275 417.875 172.25 420.125 172.25 422.325C172.25 424.275 172.325 426.35 172.475 428.55C172.675 430.7 173.025 432.525 173.525 434.025C174.075 435.525 174.875 436.275 175.925 436.275C176.375 436.275 176.775 436.1 177.125 435.75C177.525 435.35 177.75 434.9 177.8 434.4H179.225C179.125 435.45 178.675 436.325 177.875 437.025C177.125 437.725 176.2 438.25 175.1 438.6C174 439 172.925 439.2 171.875 439.2ZM143.825 383.175H149.675C152.775 383.175 155.2 382.05 156.95 379.8C158.75 377.55 160.025 374.525 160.775 370.725C161.525 366.875 161.9 362.525 161.9 357.675C161.9 353.175 161.6 349.2 161 345.75C160.45 342.25 159.35 339.5 157.7 337.5C156.05 335.5 153.6 334.5 150.35 334.5H143.825V383.175ZM192.88 438V436.5H200.005V334.5H192.88V333H218.455V334.5H211.18V436.5H218.455V438H192.88ZM244.268 438V436.5H251.168V393.9L236.843 334.5H230.393V333H255.293V334.5H249.518L262.043 390.3H261.068L274.343 334.5H267.893V333H282.143V334.5H275.993L262.418 392.4V436.5H268.643V438H244.268ZM284.096 438V436.5H291.071L307.196 332.775H309.746L326.096 436.5H332.771V438H307.046V436.5H313.796L303.221 363.075H303.971L292.796 436.5H298.871V438H284.096ZM295.421 412.875V411.3H312.296V412.875H295.421ZM345.036 438V436.5L369.861 334.5H363.111C359.211 334.5 356.061 335.325 353.661 336.975C351.311 338.625 349.586 340.975 348.486 344.025C347.436 347.075 346.911 350.625 346.911 354.675H345.411V333H381.486V334.5L356.361 436.5H364.686C368.136 436.5 370.986 435.65 373.236 433.95C375.486 432.2 377.136 429.8 378.186 426.75C379.286 423.7 379.836 420.15 379.836 416.1H381.336V438H345.036Z" fill="#AC0000"/>
</svg>
